<?xml version="1.0" standalone="no"?>
<!DOCTYPE svg PUBLIC "-//W3C//DTD SVG 20010904//EN"
 "http://www.w3.org/TR/2001/REC-SVG-20010904/DTD/svg10.dtd">
<svg version="1.0" xmlns="http://www.w3.org/2000/svg"
 width="400.000000pt" height="400.000000pt" viewBox="0 0 400.000000 400.000000"
 preserveAspectRatio="xMidYMid meet">
<metadata>
Created by potrace 1.14, written by Peter Selinger 2001-2017
</metadata>
<g transform="translate(0.000000,400.000000) scale(0.100000,-0.100000)"
fill="#000000" stroke="none">
<path d="M1827 3517 c-97 -56 -177 -104 -177 -108 0 -3 209 -127 465 -274
l465 -268 0 -539 c0 -296 2 -538 5 -538 3 0 84 45 180 101 l175 101 -2 545 -3
544 -415 240 c-228 132 -438 253 -466 269 l-50 29 -177 -102z"/>
<path d="M1068 3077 l-468 -271 0 -209 0 -209 33 20 c17 11 113 66 212 122 99
57 296 170 438 252 l257 149 438 -252 c240 -138 452 -260 470 -271 l32 -20 0
209 0 209 -52 30 c-309 180 -888 514 -890 513 -2 0 -213 -123 -470 -272z"/>
<path d="M3040 2467 l0 -544 -412 -238 c-227 -131 -437 -253 -466 -271 l-54
-32 23 -15 c123 -78 327 -187 341 -184 9 3 106 56 215 119 109 63 314 181 456
262 l257 149 0 546 -1 546 -131 75 c-73 41 -154 87 -180 103 l-48 27 0 -543z"/>
<path d="M1105 2564 c-231 -134 -438 -254 -460 -267 l-40 -22 0 -545 0 -544
177 -102 178 -103 2 542 3 541 463 266 c254 147 465 269 467 272 7 7 -340 208
-357 207 -7 0 -202 -110 -433 -245z"/>
<path d="M1250 2106 l-175 -102 -3 -545 -2 -546 467 -270 468 -270 165 95 c91
52 170 100 177 106 9 8 -102 77 -450 278 l-462 267 -5 544 -5 545 -175 -102z"/>
<path d="M1520 1391 l0 -209 138 -78 c75 -43 287 -165 471 -271 l335 -193 295
169 c163 93 373 214 466 268 l170 98 3 209 c2 180 0 208 -12 203 -8 -3 -219
-124 -468 -268 l-452 -262 -36 20 c-19 11 -222 127 -450 260 -228 132 -425
245 -437 252 l-23 12 0 -210z"/>
</g>
</svg>
